 <svg  version="1.0" xmlns="http://www.w3.org/2000/svg"  width="300.000000pt" height="164.000000pt" viewBox="0 0 300.000000 164.000000"  preserveAspectRatio="xMidYMid meet">  <g transform="translate(0.000000,164.000000) scale(0.100000,-0.100000)" fill="#ffffff" stroke="none"> <path d="M430 1359 c-74 -48 -106 -61 -142 -60 -21 1 -38 -2 -38 -6 0 -10 86 -10 96 0 5 4 26 17 49 27 22 11 48 25 57 32 14 10 26 10 60 -1 24 -7 63 -16 87 -19 39 -6 46 -11 53 -37 5 -16 7 -52 4 -80 -5 -51 21 -133 44 -136 5 -1 15 -2 22 -3 6 -1 24 -14 40 -30 41 -41 77 -31 147 42 40 41 64 58 84 59 31 1 67 28 67 49 0 8 13 20 29 29 26 13 34 13 72 0 23 -8 63 -28 88 -43 71 -43 131 -64 186 -64 31 0 59 -7 75 -18 51 -36 114 -62 173 -71 86 -14 181 -46 257 -87 108 -57 145 -85 148 -112 7 -67 8 -68 96 -95 85 -25 146 -64 146 -92 0 -12 -9 -14 -49 -8 -45 6 -50 5 -56 -15 -5 -16 1 -30 22 -54 63 -66 124 -154 139 -199 17 -52 51 -70 86 -48 15 9 19 8 24 -6 11 -37 22 -48 55 -59 26 -9 35 -18 37 -38 2 -19 14 -32 43 -46 21 -11 39 -25 39 -30 0 -16 -19 -12 -63 15 -27 15 -78 30 -144 41 -57 9 -116 25 -132 35 -16 9 -45 42 -65 72 -20 29 -62 79 -94 109 -51 49 -64 56 -112 63 -30 4 -62 13 -70 20 -8 7 -37 15 -65 17 -48 3 -51 1 -65 -29 -13 -28 -21 -33 -68 -39 -29 -3 -55 -10 -58 -15 -3 -5 9 -26 26 -45 l31 -36 -30 -19 c-49 -29 -78 -33 -107 -14 -21 14 -39 16 -89 10 l-63 -6 -33 48 c-18 26 -42 56 -54 65 -29 25 -124 24 -175 -2 -49 -25 -108 -27 -117 -3 -9 24 47 69 95 78 51 8 70 28 51 51 -7 9 -12 29 -11 44 2 15 -4 32 -13 40 -9 7 -34 43 -55 80 -67 114 -142 155 -358 194 -53 9 -99 25 -129 43 -82 50 -86 52 -104 43 -9 -5 -26 -26 -38 -45 -27 -46 -41 -37 -41 26 0 41 -5 54 -26 74 -22 20 -23 25 -10 25 10 0 27 6 39 13 12 6 40 12 62 12 44 0 58 22 34 52 -11 13 -28 15 -90 10 -83 -7 -91 -3 -103 46 -6 24 -11 27 -52 27 -25 0 -59 7 -75 16 -32 16 -55 11 -29 -7 22 -13 81 -29 113 -29 21 0 27 -5 27 -22 0 -46 14 -53 106 -53 65 0 88 -3 92 -14 4 -11 -3 -12 -30 -7 -23 4 -40 1 -53 -9 -11 -8 -35 -15 -52 -15 -41 0 -42 -17 -3 -52 26 -22 30 -33 30 -76 0 -81 50 -97 83 -27 20 42 30 43 69 10 51 -43 101 -63 199 -80 52 -9 110 -21 129 -27 58 -18 145 -85 170 -131 12 -23 35 -58 49 -77 14 -19 24 -43 23 -53 -2 -10 4 -29 12 -43 16 -24 16 -24 -16 -24 -45 0 -78 -19 -105 -59 -22 -32 -22 -35 -7 -53 23 -24 86 -23 143 2 24 11 65 20 91 20 52 0 76 -16 120 -83 30 -44 53 -52 108 -37 34 9 47 8 71 -5 39 -20 86 -19 132 2 46 21 48 40 13 82 l-26 31 37 0 c47 0 71 13 79 45 6 22 12 25 48 25 23 0 49 -6 57 -14 9 -8 43 -19 76 -25 56 -10 64 -16 122 -79 35 -37 72 -83 83 -102 34 -57 73 -77 198 -99 66 -11 126 -28 146 -40 40 -25 74 -27 83 -5 9 24 -14 63 -42 70 -15 4 -25 13 -25 24 0 35 -12 50 -49 60 -29 8 -39 16 -46 42 -10 34 -9 34 -76 26 -16 -2 -24 7 -39 44 -17 45 -94 152 -139 192 -30 28 -27 32 27 32 44 -1 47 1 50 26 4 37 -50 76 -152 109 l-81 26 -3 39 c-2 21 -9 45 -15 52 -14 17 -114 82 -126 82 -4 0 -20 9 -33 20 -37 28 -152 70 -234 84 -48 9 -94 25 -140 52 -53 30 -84 40 -132 45 -49 4 -84 16 -155 53 -111 59 -178 70 -219 37 -15 -12 -28 -31 -30 -44 -2 -17 -11 -23 -37 -25 -27 -3 -47 -17 -91 -62 -70 -72 -99 -82 -129 -44 -11 15 -21 33 -21 40 0 8 -7 14 -15 14 -8 0 -15 -4 -15 -10 0 -23 -22 -7 -36 26 -10 24 -13 50 -9 78 4 23 2 61 -4 84 -10 34 -17 43 -39 47 -15 3 -45 10 -67 16 -79 21 -99 21 -135 -2z"/> </g> </svg> 